<svg width="464" height="320" viewBox="0 0 464 320" fill="none" xmlns="http://www.w3.org/2000/svg">
<g clip-path="url(#clip0_3573_101549)">
<path d="M193.373 319.501H40.0329C39.2801 319.5 38.5584 319.2 38.0261 318.667C37.4938 318.134 37.1943 317.411 37.1934 316.657V185.308C37.1943 184.554 37.4938 183.831 38.0261 183.298C38.5584 182.765 39.2801 182.465 40.0329 182.464H193.373C194.126 182.465 194.848 182.765 195.38 183.298C195.912 183.831 196.212 184.554 196.213 185.308V316.656C196.212 317.41 195.913 318.133 195.38 318.667C194.848 319.2 194.126 319.5 193.373 319.501V319.501ZM40.0329 183.599C39.5817 183.6 39.1493 183.78 38.8303 184.1C38.5113 184.419 38.3316 184.853 38.3306 185.304V316.656C38.3316 317.108 38.5113 317.541 38.8303 317.861C39.1493 318.18 39.5817 318.36 40.0329 318.361H193.373C193.825 318.36 194.257 318.181 194.576 317.861C194.895 317.541 195.075 317.108 195.076 316.656V185.308C195.075 184.856 194.895 184.423 194.576 184.104C194.257 183.784 193.825 183.604 193.373 183.603L40.0329 183.599Z" fill="#ECECEC"/>
<path d="M62.567 222.673C68.9553 222.673 74.134 217.486 74.134 211.087C74.134 204.687 68.9553 199.5 62.567 199.5C56.1787 199.5 51 204.687 51 211.087C51 217.486 56.1787 222.673 62.567 222.673Z" fill="#ECECEC"/>
<path d="M61.5414 216.361C61.2404 216.362 60.9474 216.268 60.7065 216.093L60.6916 216.082L57.5473 213.749C57.4017 213.641 57.2795 213.506 57.1876 213.352C57.0958 213.198 57.0362 213.028 57.0121 212.852C56.988 212.675 57 212.496 57.0473 212.325C57.0947 212.153 57.1765 211.992 57.2881 211.851C57.3996 211.71 57.5388 211.591 57.6976 211.502C57.8564 211.413 58.0317 211.355 58.2136 211.332C58.3955 211.309 58.5803 211.32 58.7575 211.366C58.9347 211.412 59.1009 211.491 59.2465 211.599L61.2831 213.113L66.096 207.03C66.2076 206.889 66.3468 206.771 66.5056 206.682C66.6645 206.593 66.8398 206.535 67.0217 206.512C67.2036 206.488 67.3884 206.5 67.5656 206.546C67.7428 206.592 67.909 206.671 68.0545 206.779L68.0246 206.819L68.0553 206.78C68.349 206.999 68.5411 207.321 68.5896 207.677C68.638 208.033 68.5389 208.393 68.3138 208.678L62.6528 215.833C62.5219 215.998 62.3535 216.131 62.1608 216.223C61.968 216.315 61.7561 216.362 61.5414 216.361Z" fill="#F25959"/>
<path d="M88.9277 203.362C88.4165 203.362 87.9261 203.566 87.5646 203.928C87.2031 204.29 87 204.781 87 205.293C87 205.805 87.2031 206.297 87.5646 206.659C87.9261 207.021 88.4165 207.224 88.9277 207.224H179.813C180.324 207.224 180.814 207.021 181.176 206.659C181.537 206.297 181.741 205.805 181.741 205.293C181.741 204.781 181.537 204.29 181.176 203.928C180.814 203.566 180.324 203.362 179.813 203.362H88.9277Z" fill="#ECECEC"/>
<path d="M88.9277 214.725C88.4165 214.725 87.9261 214.928 87.5646 215.29C87.2031 215.652 87 216.143 87 216.656C87 217.168 87.2031 217.659 87.5646 218.021C87.9261 218.383 88.4165 218.587 88.9277 218.587H179.813C180.324 218.587 180.814 218.383 181.176 218.021C181.537 217.659 181.741 217.168 181.741 216.656C181.741 216.143 181.537 215.652 181.176 215.29C180.814 214.928 180.324 214.725 179.813 214.725H88.9277Z" fill="#ECECEC"/>
<path d="M88.9277 226.087C88.4165 226.087 87.9261 226.29 87.5646 226.652C87.2031 227.015 87 227.506 87 228.018C87 228.53 87.2031 229.021 87.5646 229.383C87.9261 229.745 88.4165 229.949 88.9277 229.949H179.813C180.324 229.949 180.814 229.745 181.176 229.383C181.537 229.021 181.741 228.53 181.741 228.018C181.741 227.506 181.537 227.015 181.176 226.652C180.814 226.29 180.324 226.087 179.813 226.087H88.9277Z" fill="#ECECEC"/>
<path d="M88.9277 237.449C88.4165 237.449 87.9261 237.653 87.5646 238.015C87.2031 238.377 87 238.868 87 239.38C87 239.892 87.2031 240.384 87.5646 240.746C87.9261 241.108 88.4165 241.311 88.9277 241.311H179.813C180.324 241.311 180.814 241.108 181.176 240.746C181.537 240.384 181.741 239.892 181.741 239.38C181.741 238.868 181.537 238.377 181.176 238.015C180.814 237.653 180.324 237.449 179.813 237.449H88.9277Z" fill="#ECECEC"/>
<path d="M88.9277 248.812C88.4165 248.812 87.9261 249.015 87.5646 249.377C87.2031 249.739 87 250.23 87 250.743C87 251.255 87.2031 251.746 87.5646 252.108C87.9261 252.47 88.4165 252.674 88.9277 252.674H179.813C180.324 252.674 180.814 252.47 181.176 252.108C181.537 251.746 181.741 251.255 181.741 250.743C181.741 250.23 181.537 249.739 181.176 249.377C180.814 249.015 180.324 248.812 179.813 248.812H88.9277Z" fill="#ECECEC"/>
<path d="M88.9277 260.174C88.4165 260.174 87.9261 260.377 87.5646 260.739C87.2031 261.102 87 261.593 87 262.105C87 262.617 87.2031 263.108 87.5646 263.47C87.9261 263.832 88.4165 264.036 88.9277 264.036H179.813C180.324 264.036 180.814 263.832 181.176 263.47C181.537 263.108 181.741 262.617 181.741 262.105C181.741 261.593 181.537 261.102 181.176 260.739C180.814 260.377 180.324 260.174 179.813 260.174H88.9277Z" fill="#ECECEC"/>
<path d="M88.9277 271.536C88.4165 271.536 87.9261 271.74 87.5646 272.102C87.2031 272.464 87 272.955 87 273.467C87 273.979 87.2031 274.47 87.5646 274.833C87.9261 275.195 88.4165 275.398 88.9277 275.398H179.813C180.324 275.398 180.814 275.195 181.176 274.833C181.537 274.47 181.741 273.979 181.741 273.467C181.741 272.955 181.537 272.464 181.176 272.102C180.814 271.74 180.324 271.536 179.813 271.536H88.9277Z" fill="#ECECEC"/>
<path d="M88.9277 282.898C88.4165 282.898 87.9261 283.102 87.5646 283.464C87.2031 283.826 87 284.317 87 284.829C87 285.342 87.2031 285.833 87.5646 286.195C87.9261 286.557 88.4165 286.76 88.9277 286.76H179.813C180.324 286.76 180.814 286.557 181.176 286.195C181.537 285.833 181.741 285.342 181.741 284.829C181.741 284.317 181.537 283.826 181.176 283.464C180.814 283.102 180.324 282.898 179.813 282.898H88.9277Z" fill="#ECECEC"/>
<path d="M88.9277 294.261C88.4165 294.261 87.9261 294.464 87.5646 294.826C87.2031 295.188 87 295.68 87 296.192C87 296.704 87.2031 297.195 87.5646 297.557C87.9261 297.919 88.4165 298.123 88.9277 298.123H128.036C128.547 298.123 129.038 297.919 129.399 297.557C129.761 297.195 129.964 296.704 129.964 296.192C129.964 295.68 129.761 295.188 129.399 294.826C129.038 294.464 128.547 294.261 128.036 294.261H88.9277Z" fill="#ECECEC"/>
<path d="M463.5 318.209H0.5V319.275H463.5V318.209Z" fill="#ECECEC"/>
<path d="M402.426 318.21H249.086C248.333 318.209 247.611 317.909 247.079 317.375C246.547 316.842 246.247 316.119 246.246 315.365V277.263C246.247 276.509 246.547 275.786 247.079 275.253C247.611 274.72 248.333 274.42 249.086 274.419H402.426C403.179 274.42 403.901 274.72 404.433 275.253C404.965 275.786 405.265 276.509 405.266 277.263V315.365C405.265 316.119 404.965 316.842 404.433 317.375C403.901 317.909 403.179 318.209 402.426 318.21ZM249.086 275.554C248.634 275.555 248.202 275.735 247.883 276.055C247.564 276.374 247.384 276.808 247.383 277.259V315.361C247.384 315.813 247.564 316.246 247.883 316.566C248.202 316.885 248.634 317.065 249.086 317.066H402.426C402.877 317.065 403.31 316.885 403.629 316.566C403.948 316.246 404.128 315.813 404.128 315.361V277.263C404.128 276.811 403.948 276.378 403.629 276.058C403.31 275.739 402.877 275.559 402.426 275.558L249.086 275.554Z" fill="#ECECEC"/>
<path d="M272.911 306.439C279.299 306.439 284.478 301.251 284.478 294.852C284.478 288.453 279.299 283.266 272.911 283.266C266.522 283.266 261.344 288.453 261.344 294.852C261.344 301.251 266.522 306.439 272.911 306.439Z" fill="#ECECEC"/>
<path d="M299.627 287.128C299.116 287.128 298.625 287.331 298.264 287.694C297.902 288.056 297.699 288.547 297.699 289.059C297.699 289.571 297.902 290.062 298.264 290.424C298.625 290.787 299.116 290.99 299.627 290.99H390.512C391.023 290.99 391.514 290.787 391.875 290.424C392.237 290.062 392.44 289.571 392.44 289.059C392.44 288.547 392.237 288.056 391.875 287.694C391.514 287.331 391.023 287.128 390.512 287.128H299.627Z" fill="#ECECEC"/>
<path d="M299.627 298.715C299.116 298.715 298.625 298.918 298.264 299.28C297.902 299.643 297.699 300.134 297.699 300.646C297.699 301.158 297.902 301.649 298.264 302.011C298.625 302.373 299.116 302.577 299.627 302.577H338.735C339.246 302.577 339.737 302.373 340.098 302.011C340.46 301.649 340.663 301.158 340.663 300.646C340.663 300.134 340.46 299.643 340.098 299.28C339.737 298.918 339.246 298.715 338.735 298.715H299.627Z" fill="#ECECEC"/>
<path d="M375.487 273.524L235.317 210.982C234.629 210.674 234.091 210.106 233.821 209.402C233.551 208.698 233.571 207.915 233.876 207.226L249.342 172.425C249.648 171.737 250.216 171.198 250.919 170.928C251.622 170.659 252.403 170.679 253.092 170.985L393.262 233.527C393.95 233.835 394.488 234.403 394.758 235.107C395.028 235.812 395.009 236.594 394.703 237.283L379.238 272.084C378.931 272.772 378.364 273.31 377.661 273.58C376.958 273.85 376.176 273.83 375.487 273.524ZM252.631 172.022C252.218 171.839 251.75 171.827 251.328 171.989C250.907 172.151 250.567 172.473 250.383 172.885L234.917 207.686C234.735 208.099 234.723 208.568 234.885 208.99C235.047 209.412 235.369 209.753 235.781 209.938L375.951 272.479C376.364 272.663 376.833 272.675 377.254 272.513C377.675 272.351 378.015 272.029 378.2 271.616L393.664 236.819C393.846 236.406 393.858 235.937 393.696 235.515C393.534 235.093 393.212 234.753 392.8 234.568L252.631 172.022Z" fill="#ECECEC"/>
<path d="M261.881 209.961C267.722 212.567 274.563 209.94 277.161 204.094C279.759 198.247 277.13 191.394 271.289 188.788C265.448 186.181 258.607 188.808 256.009 194.655C253.411 200.501 256.04 207.354 261.881 209.961Z" fill="#ECECEC"/>
<path d="M294.139 203.205C293.672 202.996 293.141 202.982 292.663 203.166C292.186 203.349 291.801 203.714 291.593 204.182C291.385 204.65 291.372 205.181 291.555 205.659C291.739 206.137 292.104 206.523 292.571 206.731L375.642 243.787C376.109 243.996 376.64 244.01 377.118 243.827C377.595 243.643 377.98 243.278 378.188 242.81C378.396 242.343 378.409 241.811 378.226 241.333C378.042 240.855 377.677 240.47 377.21 240.261L294.139 203.205Z" fill="#ECECEC"/>
<path d="M289.43 213.796C288.963 213.587 288.432 213.573 287.954 213.756C287.477 213.94 287.092 214.305 286.884 214.773C286.676 215.241 286.663 215.772 286.846 216.25C287.03 216.728 287.395 217.114 287.863 217.322L323.609 233.269C324.076 233.478 324.607 233.492 325.084 233.309C325.562 233.125 325.947 232.76 326.155 232.292C326.363 231.824 326.376 231.293 326.193 230.815C326.009 230.337 325.644 229.951 325.176 229.743L289.43 213.796Z" fill="#ECECEC"/>
<path d="M260.279 167.633L107.545 181.013C106.795 181.078 106.051 180.842 105.474 180.358C104.898 179.874 104.537 179.18 104.47 178.429L101.167 140.495C101.102 139.744 101.338 138.998 101.822 138.421C102.306 137.844 102.998 137.482 103.748 137.415L256.481 124.035C257.231 123.971 257.976 124.206 258.552 124.691C259.129 125.175 259.49 125.869 259.556 126.619L262.86 164.553C262.925 165.304 262.689 166.05 262.205 166.628C261.721 167.205 261.028 167.567 260.279 167.633ZM103.847 138.546C103.397 138.586 102.982 138.803 102.692 139.149C102.402 139.495 102.261 139.942 102.299 140.392L105.603 178.326C105.643 178.776 105.86 179.191 106.205 179.482C106.55 179.772 106.997 179.913 107.446 179.875L260.179 166.495C260.629 166.455 261.044 166.238 261.334 165.892C261.624 165.546 261.765 165.099 261.727 164.649L258.423 126.719C258.383 126.269 258.167 125.853 257.821 125.563C257.476 125.272 257.03 125.131 256.58 125.17L103.847 138.546Z" fill="#ECECEC"/>
<path d="M130.258 167.211C136.622 166.654 141.331 161.036 140.776 154.663C140.221 148.29 134.612 143.576 128.249 144.134C121.885 144.692 117.176 150.31 117.731 156.682C118.286 163.055 123.895 167.769 130.258 167.211Z" fill="#ECECEC"/>
<path d="M155.19 145.655C154.68 145.7 154.21 145.945 153.881 146.337C153.552 146.728 153.393 147.235 153.437 147.744C153.481 148.254 153.726 148.725 154.118 149.054C154.509 149.382 155.015 149.542 155.524 149.497L246.046 141.573C246.556 141.528 247.026 141.283 247.355 140.891C247.684 140.5 247.843 139.993 247.799 139.484C247.755 138.974 247.51 138.503 247.118 138.174C246.727 137.846 246.221 137.686 245.712 137.731L155.19 145.655Z" fill="#ECECEC"/>
<path d="M156.197 157.195C155.688 157.24 155.217 157.485 154.889 157.877C154.56 158.269 154.4 158.775 154.445 159.285C154.489 159.795 154.734 160.266 155.126 160.595C155.517 160.923 156.023 161.083 156.532 161.039L195.485 157.628C195.994 157.583 196.464 157.338 196.793 156.946C197.122 156.554 197.282 156.047 197.237 155.538C197.193 155.028 196.948 154.557 196.556 154.228C196.165 153.899 195.659 153.74 195.15 153.784L156.197 157.195Z" fill="#ECECEC"/>
<path d="M231.347 44.8391C241.042 44.8391 248.901 36.9667 248.901 27.2555C248.901 17.5443 241.042 9.67188 231.347 9.67188C221.652 9.67188 213.793 17.5443 213.793 27.2555C213.793 36.9667 221.652 44.8391 231.347 44.8391Z" fill="#141414"/>
<path d="M231.702 46.3918C238.917 46.3918 244.767 40.5325 244.767 33.3048C244.767 26.077 238.917 20.2178 231.702 20.2178C224.486 20.2178 218.637 26.077 218.637 33.3048C218.637 40.5325 224.486 46.3918 231.702 46.3918Z" fill="#FFCECE"/>
<path d="M251.559 52.2988C251.559 52.2988 227.622 48.0361 212.195 53.3645L216.717 89.331L215.653 95.1922L247.569 94.1266L245.442 88.2654L251.559 52.2988Z" fill="#FFCECE"/>
<path d="M234.926 91.1114C229.415 91.0457 223.911 90.6964 218.435 90.065C217.311 89.9411 216.274 89.3991 215.529 88.5461C214.784 87.6932 214.386 86.5914 214.413 85.4586L214.802 68.6385L214.847 68.573C219.472 61.863 217.219 56.9619 215.485 54.3233C215.12 53.766 214.925 53.1136 214.926 52.4467C214.66 52.0737 214.6 52.6625 214.766 52.2447C214.848 52.0374 214.98 51.8539 215.151 51.7108C215.321 51.5676 215.525 51.4695 215.743 51.4252L218.383 50.8966C218.7 50.8333 219.029 50.8876 219.309 51.0495C219.589 51.2114 219.8 51.4698 219.904 51.7764C220.791 54.4283 224.249 62.9611 232.173 62.959C238.793 62.959 241.264 53.5752 241.411 51.4066C241.435 51.0706 241.586 50.7562 241.832 50.5266C242.078 50.2971 242.401 50.1694 242.738 50.1693H246.036C246.244 50.1644 246.451 50.2066 246.642 50.2927C246.832 50.3789 247 50.5068 247.135 50.667C247.299 50.8709 247.399 51.1191 247.422 51.3801C247.445 51.6411 247.39 51.9031 247.264 52.1328C243.5 59.065 249.001 70.0362 249.057 70.1427L249.092 70.212L247.54 86.3532C247.446 87.3001 247.058 88.1938 246.431 88.9084C245.804 89.6231 244.968 90.1227 244.043 90.3372C241.643 90.9015 238.4 91.1114 234.926 91.1114Z" fill="#D51010"/>
<path d="M204.548 128.564C200.974 128.564 197.701 128.17 195.101 127.238C192.01 126.13 190.07 124.339 189.333 121.909C188.984 120.877 188.88 119.778 189.028 118.699C189.177 117.619 189.573 116.589 190.187 115.69C194.759 108.832 210.625 106.898 212.753 106.669L213.881 97.2555C214.015 96.1691 214.535 95.1675 215.347 94.4348C216.159 93.702 217.207 93.2872 218.3 93.2667L245.02 92.849C246.094 92.823 247.141 93.1841 247.97 93.8664C248.8 94.5488 249.358 95.507 249.542 96.5666L251.06 104.932L233.539 113.444L236.188 120.875L236.015 120.99C230.887 124.414 216.14 128.563 204.548 128.564Z" fill="#141414"/>
<path d="M248.635 103.718C248.635 103.718 273.104 100.521 271.508 113.309C269.912 126.097 251.294 135.155 223.102 113.309L226.293 106.915C226.293 106.915 242.251 111.177 248.635 107.98V103.718Z" fill="#141414"/>
<path d="M226.826 108.513C226.826 108.513 226.826 102.119 221.506 102.652C216.187 103.184 206.612 103.717 206.612 103.717C206.612 103.717 203.42 105.849 207.676 106.914C211.931 107.98 224.698 113.308 224.698 113.308L226.826 108.513Z" fill="#FFCECE"/>
<path d="M235.867 107.447C235.867 107.447 235.867 101.053 241.187 101.586C246.506 102.119 256.081 102.652 256.081 102.652C256.081 102.652 259.273 104.783 255.017 105.849C250.761 106.915 237.995 112.243 237.995 112.243L235.867 107.447Z" fill="#FFCECE"/>
<path d="M267.743 106.236L259.806 78.6737C259.806 78.6737 258.21 69.0826 256.615 60.0244C255.019 50.9662 249.167 52.0318 249.167 52.0318L248.104 52.5647V66.9513L249.167 80.2722L259.788 109.525C259.475 110.539 259.457 111.622 259.736 112.646C260.014 113.671 260.578 114.594 261.361 115.31C262.144 116.025 263.115 116.502 264.159 116.686C265.202 116.869 266.277 116.752 267.257 116.346C268.236 115.941 269.08 115.265 269.691 114.397C270.301 113.529 270.652 112.505 270.703 111.445C270.754 110.384 270.503 109.331 269.979 108.408C269.455 107.486 268.679 106.731 267.743 106.234V106.236Z" fill="#FFCECE"/>
<path d="M214.058 53.0982C214.058 53.0982 208.207 52.0326 206.611 61.0908C205.015 70.149 203.419 79.7401 203.419 79.7401L195.482 107.302C194.546 107.8 193.771 108.554 193.246 109.477C192.722 110.4 192.471 111.453 192.522 112.513C192.573 113.574 192.924 114.598 193.535 115.466C194.145 116.334 194.989 117.01 195.969 117.415C196.948 117.82 198.023 117.938 199.067 117.754C200.111 117.571 201.081 117.093 201.864 116.378C202.647 115.663 203.211 114.739 203.49 113.715C203.769 112.69 203.75 111.608 203.438 110.593L214.058 81.3407L215.122 68.0198V54.8225C215.122 54.4645 215.022 54.1135 214.834 53.809C214.647 53.5045 214.378 53.2583 214.058 53.0982Z" fill="#FFCECE"/>
<path d="M218.77 25.2658C223.872 28.3858 229.624 30.2843 235.579 30.8137L233.807 28.6872C235.097 29.1647 236.455 29.4344 237.829 29.4864C238.517 29.5064 239.2 29.3646 239.824 29.0722C240.447 28.7799 240.994 28.3453 241.419 27.8032C241.767 27.2403 241.974 26.6015 242.021 25.9414C242.069 25.2812 241.957 24.6193 241.694 24.012C241.154 22.8008 240.314 21.7481 239.253 20.9541C237.372 19.464 235.153 18.4631 232.793 18.0406C230.432 17.618 228.004 17.787 225.725 18.5323C224.161 19 222.76 19.8996 221.682 21.1283C221.153 21.747 220.786 22.4878 220.613 23.2839C220.44 24.0801 220.467 24.9068 220.691 25.6899" fill="#141414"/>
<path d="M232.998 11.6234C228.878 7.43769 223.891 4.20765 218.39 2.16071C214.858 0.850461 211.014 0.0405643 207.323 0.784938C203.631 1.52931 200.141 4.08853 199.109 7.71608C198.267 10.6829 199.137 13.8778 200.444 16.6709C201.751 19.4641 203.496 22.0526 204.553 24.9512C205.632 27.9076 205.957 31.087 205.498 34.201C205.039 37.3149 203.81 40.2646 201.924 42.7824C200.039 45.3001 197.555 47.3062 194.698 48.6183C191.842 49.9305 188.704 50.5072 185.568 50.2962C189.196 50.7832 192.539 52.4909 196.085 53.3999C199.631 54.309 203.816 54.2471 206.451 51.7028C209.239 49.011 209.294 44.6337 209.159 40.7573L208.558 23.4694C208.456 20.5308 208.369 17.4974 209.427 14.7543C210.485 12.0113 212.999 9.60924 215.935 9.63428C218.16 9.65346 220.129 11.0031 221.914 12.3347C223.698 13.6663 225.584 15.0868 227.803 15.2845C230.021 15.4822 232.549 13.84 232.383 11.617" fill="#141414"/>
<path d="M443.757 294.356C443.545 302.279 442.22 310.133 439.821 317.686C439.768 317.862 439.709 318.034 439.651 318.21H424.963C424.978 318.052 424.994 317.877 425.01 317.686C425.989 306.408 420.394 238.585 413.643 226.847C414.234 227.799 444.896 258.521 443.757 294.356Z" fill="#ECECEC"/>
<path d="M442.655 317.686C442.532 317.861 442.404 318.037 442.274 318.209H431.254C431.337 318.06 431.434 317.885 431.546 317.686C433.367 314.395 438.755 304.556 443.756 294.356C449.129 283.394 454.062 272.017 453.646 267.899C453.775 268.828 457.494 297.139 442.655 317.686Z" fill="#ECECEC"/>
<path d="M128.596 161.077C128.297 161.11 127.996 161.049 127.737 160.901L127.721 160.892L124.34 158.918C124.183 158.827 124.047 158.706 123.938 158.563C123.83 158.42 123.752 158.258 123.709 158.085C123.666 157.913 123.658 157.734 123.686 157.558C123.715 157.382 123.778 157.213 123.874 157.06C123.969 156.908 124.094 156.775 124.242 156.669C124.39 156.563 124.558 156.486 124.737 156.443C124.915 156.4 125.1 156.391 125.281 156.417C125.462 156.443 125.636 156.504 125.793 156.596L127.983 157.876L132.099 151.302C132.195 151.15 132.32 151.017 132.468 150.911C132.616 150.805 132.784 150.728 132.962 150.685C133.141 150.642 133.326 150.633 133.507 150.66C133.688 150.686 133.862 150.746 134.018 150.838L133.993 150.88L134.019 150.838C134.335 151.024 134.562 151.323 134.649 151.672C134.736 152.02 134.677 152.389 134.485 152.697L129.643 160.43C129.531 160.608 129.378 160.759 129.197 160.871C129.015 160.983 128.81 161.054 128.596 161.077Z" fill="#F25959"/>
<path d="M271.541 299.361C271.24 299.362 270.947 299.268 270.707 299.093L270.692 299.082L267.547 296.749C267.402 296.641 267.279 296.506 267.188 296.352C267.096 296.198 267.036 296.028 267.012 295.852C266.988 295.675 267 295.496 267.047 295.325C267.095 295.153 267.176 294.992 267.288 294.851C267.4 294.71 267.539 294.591 267.698 294.502C267.856 294.413 268.032 294.355 268.214 294.332C268.395 294.309 268.58 294.32 268.758 294.366C268.935 294.412 269.101 294.491 269.247 294.599L271.283 296.113L276.096 290.03C276.208 289.889 276.347 289.771 276.506 289.682C276.664 289.593 276.84 289.535 277.022 289.512C277.204 289.488 277.388 289.5 277.566 289.546C277.743 289.592 277.909 289.671 278.055 289.779L278.025 289.819L278.055 289.78C278.349 289.999 278.541 290.321 278.59 290.677C278.638 291.033 278.539 291.393 278.314 291.678L272.653 298.833C272.522 298.998 272.353 299.131 272.161 299.223C271.968 299.315 271.756 299.362 271.541 299.361Z" fill="#F25959"/>
<path d="M263.006 203.343C262.74 203.202 262.526 202.98 262.396 202.713L262.388 202.696L260.713 199.157C260.636 198.993 260.591 198.816 260.583 198.637C260.574 198.458 260.602 198.28 260.664 198.114C260.725 197.947 260.82 197.794 260.943 197.665C261.066 197.536 261.214 197.433 261.379 197.361C261.543 197.289 261.722 197.25 261.904 197.246C262.086 197.242 262.268 197.274 262.439 197.339C262.611 197.404 262.768 197.501 262.903 197.625C263.038 197.749 263.147 197.897 263.224 198.061L264.308 200.356L271.419 197.257C271.584 197.185 271.762 197.146 271.944 197.142C272.126 197.139 272.308 197.17 272.48 197.235C272.651 197.3 272.808 197.398 272.943 197.522C273.078 197.646 273.187 197.794 273.264 197.958L273.22 197.979L273.265 197.959C273.421 198.29 273.438 198.665 273.314 199.002C273.189 199.339 272.932 199.61 272.599 199.755L264.235 203.4C264.042 203.484 263.831 203.522 263.618 203.513C263.404 203.503 263.195 203.445 263.006 203.343Z" fill="#F25959"/>
</g>
<defs>
<clipPath id="clip0_3573_101549">
<rect width="463" height="319" fill="white" transform="translate(0.5 0.5)"/>
</clipPath>
</defs>
</svg>
