<svg width="234" height="168" viewBox="0 0 234 168" fill="none" xmlns="http://www.w3.org/2000/svg">
<path d="M211.774 0H9.06255C4.33359 0 0.5 3.83779 0.5 8.57195V159.428C0.5 164.162 4.33359 168 9.06255 168H211.774C216.503 168 220.336 164.162 220.336 159.428V8.57195C220.336 3.83779 216.503 0 211.774 0Z" fill="#ECECEC"/>
<path d="M9.0638 1.96973C5.42787 1.96973 2.46875 4.93209 2.46875 8.57202V159.424C2.46875 163.064 5.42787 166.026 9.0638 166.026H211.775C215.411 166.026 218.37 163.064 218.37 159.424V8.57202C218.37 4.93209 215.411 1.96973 211.775 1.96973H9.0638Z" fill="white"/>
<path d="M111.199 1.00391H109.629V167.18H111.199V1.00391Z" fill="#ECECEC"/>
<path d="M101.083 28.0598C102.311 28.0598 103.306 27.0633 103.306 25.8341C103.306 24.6049 102.311 23.6084 101.083 23.6084C99.8548 23.6084 98.8594 24.6049 98.8594 25.8341C98.8594 27.0633 99.8548 28.0598 101.083 28.0598Z" fill="#ECECEC"/>
<path d="M119.751 28.0598C120.979 28.0598 121.974 27.0633 121.974 25.8341C121.974 24.6049 120.979 23.6084 119.751 23.6084C118.523 23.6084 117.527 24.6049 117.527 25.8341C117.527 27.0633 118.523 28.0598 119.751 28.0598Z" fill="#ECECEC"/>
<path d="M101.083 57.1438C102.311 57.1438 103.306 56.1473 103.306 54.9181C103.306 53.6889 102.311 52.6924 101.083 52.6924C99.8548 52.6924 98.8594 53.6889 98.8594 54.9181C98.8594 56.1473 99.8548 57.1438 101.083 57.1438Z" fill="#ECECEC"/>
<path d="M119.751 57.1438C120.979 57.1438 121.974 56.1473 121.974 54.9181C121.974 53.6889 120.979 52.6924 119.751 52.6924C118.523 52.6924 117.527 53.6889 117.527 54.9181C117.527 56.1473 118.523 57.1438 119.751 57.1438Z" fill="#ECECEC"/>
<path d="M101.083 86.2239C102.311 86.2239 103.306 85.2274 103.306 83.9982C103.306 82.7689 102.311 81.7725 101.083 81.7725C99.8548 81.7725 98.8594 82.7689 98.8594 83.9982C98.8594 85.2274 99.8548 86.2239 101.083 86.2239Z" fill="#ECECEC"/>
<path d="M119.751 86.2239C120.979 86.2239 121.974 85.2274 121.974 83.9982C121.974 82.7689 120.979 81.7725 119.751 81.7725C118.523 81.7725 117.527 82.7689 117.527 83.9982C117.527 85.2274 118.523 86.2239 119.751 86.2239Z" fill="#ECECEC"/>
<path d="M101.083 115.308C102.311 115.308 103.306 114.311 103.306 113.082C103.306 111.853 102.311 110.856 101.083 110.856C99.8548 110.856 98.8594 111.853 98.8594 113.082C98.8594 114.311 99.8548 115.308 101.083 115.308Z" fill="#ECECEC"/>
<path d="M119.751 115.308C120.979 115.308 121.974 114.311 121.974 113.082C121.974 111.853 120.979 110.856 119.751 110.856C118.523 110.856 117.527 111.853 117.527 113.082C117.527 114.311 118.523 115.308 119.751 115.308Z" fill="#ECECEC"/>
<path d="M101.083 144.388C102.311 144.388 103.306 143.391 103.306 142.162C103.306 140.933 102.311 139.937 101.083 139.937C99.8548 139.937 98.8594 140.933 98.8594 142.162C98.8594 143.391 99.8548 144.388 101.083 144.388Z" fill="#ECECEC"/>
<path d="M119.751 144.388C120.979 144.388 121.974 143.391 121.974 142.162C121.974 140.933 120.979 139.937 119.751 139.937C118.523 139.937 117.527 140.933 117.527 142.162C117.527 143.391 118.523 144.388 119.751 144.388Z" fill="#ECECEC"/>
<path d="M101.288 24.8065L100.875 24.1368C100.977 24.0738 111.145 17.9245 119.975 24.1487L119.523 24.7947C111.118 18.87 101.383 24.7474 101.288 24.8065Z" fill="#ECECEC"/>
<path d="M101.288 27.535L100.875 26.8654C100.977 26.8023 111.145 20.6531 119.975 26.8772L119.523 27.5232C111.118 21.5985 101.383 27.476 101.288 27.535Z" fill="#ECECEC"/>
<path d="M101.288 54.0155L100.875 53.3458C100.977 53.2828 111.145 47.1335 119.975 53.3576L119.523 54.0037C111.118 48.079 101.383 53.9564 101.288 54.0155Z" fill="#ECECEC"/>
<path d="M101.288 56.7499L100.875 56.0802C100.977 56.0172 111.145 49.8679 119.975 56.092L119.523 56.7381C111.118 50.8133 101.383 56.6908 101.288 56.7499Z" fill="#ECECEC"/>
<path d="M101.288 83.2265L100.875 82.5568C100.977 82.4937 111.145 76.3445 119.975 82.5686L119.523 83.2146C111.118 77.2899 101.383 83.1674 101.288 83.2265Z" fill="#ECECEC"/>
<path d="M101.288 85.9599L100.875 85.2902C100.977 85.2271 111.141 79.0779 119.975 85.302L119.523 85.948C111.118 80.0233 101.383 85.9008 101.288 85.9599Z" fill="#ECECEC"/>
<path d="M101.288 112.435L100.875 111.766C100.977 111.703 111.145 105.553 119.975 111.778L119.523 112.424C111.118 106.503 101.383 112.376 101.288 112.435Z" fill="#ECECEC"/>
<path d="M101.288 115.17L100.875 114.5C100.977 114.437 111.141 108.288 119.975 114.512L119.523 115.158C111.118 109.233 101.383 115.111 101.288 115.17Z" fill="#ECECEC"/>
<path d="M101.288 141.646L100.875 140.977C100.977 140.914 111.145 134.764 119.975 140.989L119.523 141.631C111.118 135.706 101.383 141.583 101.288 141.642V141.646Z" fill="#ECECEC"/>
<path d="M101.288 144.38L100.875 143.71C100.977 143.647 111.145 137.498 119.975 143.722L119.523 144.364C111.118 138.439 101.383 144.317 101.288 144.376V144.38Z" fill="#ECECEC"/>
<path d="M20.9119 29.8993C28.9983 29.5881 37.0926 29.4542 45.1869 29.5015C53.2812 29.5487 61.2417 29.7733 69.2573 30.179C73.8218 30.4075 78.3786 30.6951 82.9353 31.0417C83.6948 31.1008 83.6908 29.9151 82.9353 29.8599C74.8646 29.2494 66.7821 28.82 58.6918 28.5678C50.6014 28.3157 42.637 28.2527 34.6096 28.3591C30.0411 28.4221 25.4726 28.5403 20.908 28.7175C20.1524 28.7451 20.1485 29.9269 20.908 29.8993H20.9119Z" fill="#F25959"/>
<path d="M20.644 110.722C27.0419 110.409 33.446 110.273 39.8502 110.321C46.2543 110.369 52.5526 110.595 58.8944 111.004C62.5059 111.235 66.1111 111.525 69.7164 111.875C70.3172 111.934 70.3141 110.738 69.7164 110.683C63.3309 110.067 56.9361 109.634 50.5351 109.38C44.1341 109.125 37.8327 109.062 31.4815 109.169C27.8669 109.233 24.2524 109.352 20.6409 109.531C20.0431 109.558 20.04 110.75 20.6409 110.722H20.644Z" fill="#F25959"/>
<path d="M20.9119 43.2695C28.9983 42.9582 37.0926 42.8243 45.1869 42.8716C53.2812 42.9189 61.2417 43.1434 69.2573 43.5491C73.8218 43.7776 78.3786 44.0652 82.9353 44.4119C83.6948 44.4709 83.6908 43.2852 82.9353 43.2301C74.8646 42.6195 66.7821 42.1901 58.6918 41.938C50.6014 41.6859 42.637 41.6228 34.6096 41.7292C30.0411 41.7922 25.4726 41.9104 20.908 42.0877C20.1524 42.1152 20.1485 43.297 20.908 43.2695H20.9119Z" fill="#393939"/>
<path d="M139.994 69.3456C148.08 69.0344 156.175 68.9005 164.269 68.9478C172.363 68.995 180.324 69.2196 188.339 69.6253C192.904 69.8538 197.461 70.1414 202.017 70.488C202.777 70.5471 202.773 69.3614 202.017 69.3062C193.947 68.6956 185.864 68.2663 177.774 68.0141C169.683 67.762 161.719 67.699 153.692 67.8054C149.123 67.8684 144.555 67.9866 139.99 68.1638C139.234 68.1914 139.231 69.3732 139.99 69.3456H139.994Z" fill="#F25959"/>
<path d="M139.994 82.7167C148.08 82.4055 156.175 82.2716 164.269 82.3189C172.363 82.3661 180.324 82.5907 188.339 82.9964C192.904 83.2249 197.461 83.5125 202.017 83.8591C202.777 83.9182 202.773 82.7325 202.017 82.6773C193.947 82.0667 185.864 81.6373 177.774 81.3852C169.683 81.1331 161.719 81.0701 153.692 81.1764C149.123 81.2395 144.555 81.3577 139.99 81.5349C139.234 81.5625 139.231 82.7443 139.99 82.7167H139.994Z" fill="#393939"/>
<path d="M20.9119 56.6389C27.4754 56.3829 34.0429 56.0914 40.6144 55.9771C46.2336 55.8786 51.8527 55.9692 57.464 56.2411C61.4659 56.4341 65.4639 56.7059 69.4619 57.0053C70.2213 57.0644 70.2174 55.8786 69.4619 55.8235C62.914 55.3271 56.3583 54.9214 49.7908 54.7953C44.1716 54.689 38.5485 54.8111 32.9333 55.0002C28.9275 55.1381 24.9216 55.2996 20.9119 55.4571C20.1563 55.4847 20.1524 56.6665 20.9119 56.6389Z" fill="#393939"/>
<path d="M20.9118 70.0093C27.861 69.7414 34.8142 69.4578 41.7673 69.3553C47.9925 69.2608 54.2216 69.3435 60.4428 69.6272C64.5864 69.8162 68.726 70.0802 72.8656 70.3953C73.625 70.4544 73.6211 69.2687 72.8656 69.2135C65.9321 68.6896 58.9908 68.2996 52.0416 68.1814C45.8125 68.0711 39.5834 68.1814 33.3582 68.3784C29.2107 68.5084 25.0633 68.6699 20.9158 68.8314C20.1603 68.859 20.1563 70.0408 20.9158 70.0132L20.9118 70.0093Z" fill="#393939"/>
<path d="M20.9119 83.3758C27.2315 83.1315 33.5432 82.7455 39.8589 82.45C45.0767 82.2058 50.2945 82.1231 55.5162 82.2964C59.4276 82.4264 63.3351 82.6706 67.2346 82.9661C67.9941 83.0252 67.9902 81.8394 67.2346 81.7843C60.9386 81.3076 54.6348 80.9728 48.3191 81.0201C43.0895 81.0595 37.8717 81.3628 32.6539 81.6425C28.7425 81.8513 24.8272 82.0404 20.9119 82.194C20.1563 82.2216 20.1524 83.4073 20.9119 83.3758Z" fill="#393939"/>
<path d="M20.9119 96.746C28.9983 96.4348 37.0926 96.3009 45.1869 96.3481C53.2812 96.3954 61.2417 96.62 69.2573 97.0257C73.8218 97.2542 78.3786 97.5418 82.9353 97.8884C83.6948 97.9475 83.6908 96.7618 82.9353 96.7066C74.8646 96.096 66.7821 95.6666 58.6918 95.4145C50.6014 95.1624 42.637 95.0994 34.6096 95.2057C30.0411 95.2688 25.4726 95.387 20.908 95.5642C20.1524 95.5918 20.1485 96.7736 20.908 96.746H20.9119Z" fill="#393939"/>
<path d="M139.994 31.4165C146.943 31.1486 153.896 30.865 160.849 30.7626C167.075 30.668 173.304 30.7508 179.525 31.0344C183.668 31.2235 187.808 31.4874 191.948 31.8026C192.707 31.8616 192.703 30.6759 191.948 30.6208C185.014 30.0968 178.073 29.7068 171.124 29.5887C164.895 29.4784 158.665 29.5887 152.44 29.7856C148.293 29.9156 144.145 30.0771 139.998 30.2386C139.242 30.2662 139.238 31.448 139.998 31.4204L139.994 31.4165Z" fill="#393939"/>
<path d="M139.994 44.783C146.314 44.5388 152.625 44.1527 158.941 43.8573C164.159 43.613 169.377 43.5303 174.598 43.7036C178.51 43.8336 182.417 44.0779 186.317 44.3733C187.076 44.4324 187.072 43.2467 186.317 43.1915C180.021 42.7149 173.717 42.38 167.401 42.4273C162.172 42.4667 156.954 42.77 151.736 43.0497C147.825 43.2585 143.909 43.4476 139.994 43.6012C139.238 43.6288 139.234 44.8145 139.994 44.783Z" fill="#393939"/>
<path d="M139.994 58.1523C148.08 57.8411 156.175 57.7071 164.269 57.7544C172.363 57.8017 180.324 58.0262 188.339 58.432C192.904 58.6604 197.461 58.948 202.017 59.2947C202.777 59.3538 202.773 58.168 202.017 58.1129C193.947 57.5023 185.864 57.0729 177.774 56.8208C169.683 56.5687 161.719 56.5056 153.692 56.612C149.123 56.675 144.555 56.7932 139.99 56.9705C139.234 56.998 139.231 58.1798 139.99 58.1523H139.994Z" fill="#393939"/>
<path d="M13.7128 31.0663C13.5944 31.0666 13.4791 31.0294 13.3843 30.9605L13.3784 30.9562L12.1411 30.0371C12.0838 29.9945 12.0358 29.9414 11.9996 29.8808C11.9635 29.8202 11.94 29.7532 11.9305 29.6838C11.9211 29.6144 11.9258 29.5438 11.9444 29.4761C11.963 29.4085 11.9952 29.345 12.0391 29.2894C12.083 29.2339 12.1378 29.1872 12.2003 29.1521C12.2628 29.1171 12.3318 29.0943 12.4033 29.0851C12.4749 29.0759 12.5476 29.0805 12.6174 29.0986C12.6871 29.1167 12.7525 29.1479 12.8098 29.1905L13.6112 29.7867L15.505 27.3904C15.549 27.3349 15.6037 27.2882 15.6662 27.2532C15.7287 27.2181 15.7978 27.1954 15.8693 27.1862C15.9409 27.1771 16.0136 27.1817 16.0833 27.1998C16.1531 27.2179 16.2185 27.2491 16.2757 27.2917L16.264 27.3073L16.276 27.292C16.3916 27.3781 16.4672 27.5052 16.4863 27.6454C16.5053 27.7856 16.4663 27.9274 16.3778 28.0397L14.1502 30.8582C14.0986 30.9232 14.0324 30.9757 13.9565 31.0118C13.8807 31.0479 13.7973 31.0666 13.7128 31.0663Z" fill="#F25959"/>
<path d="M13.7128 111.822C13.5944 111.822 13.4791 111.785 13.3843 111.716L13.3784 111.712L12.1411 110.793C12.0838 110.75 12.0358 110.697 11.9996 110.637C11.9635 110.576 11.94 110.509 11.9305 110.44C11.9211 110.37 11.9258 110.3 11.9444 110.232C11.963 110.164 11.9952 110.101 12.0391 110.045C12.083 109.99 12.1378 109.943 12.2003 109.908C12.2628 109.873 12.3318 109.85 12.4033 109.841C12.4749 109.832 12.5476 109.836 12.6174 109.854C12.6871 109.873 12.7525 109.904 12.8098 109.946L13.6112 110.543L15.505 108.146C15.549 108.091 15.6037 108.044 15.6662 108.009C15.7287 107.974 15.7978 107.951 15.8693 107.942C15.9409 107.933 16.0136 107.938 16.0833 107.956C16.1531 107.974 16.2185 108.005 16.2757 108.048L16.264 108.063L16.276 108.048C16.3916 108.134 16.4672 108.261 16.4863 108.401C16.5053 108.541 16.4663 108.683 16.3778 108.796L14.1502 111.614C14.0986 111.679 14.0324 111.732 13.9565 111.768C13.8807 111.804 13.7973 111.822 13.7128 111.822Z" fill="#F25959"/>
<path d="M133.338 70.0654C133.219 70.0656 133.104 70.0284 133.009 69.9595L133.003 69.9552L131.766 69.0362C131.709 68.9936 131.661 68.9404 131.625 68.8798C131.588 68.8192 131.565 68.7522 131.556 68.6828C131.546 68.6134 131.551 68.5428 131.569 68.4752C131.588 68.4075 131.62 68.3441 131.664 68.2885C131.708 68.2329 131.763 68.1862 131.825 68.1512C131.888 68.1161 131.957 68.0933 132.028 68.0841C132.1 68.0749 132.173 68.0795 132.242 68.0976C132.312 68.1157 132.377 68.1469 132.435 68.1895L133.236 68.7857L135.13 66.3895C135.174 66.3339 135.229 66.2872 135.291 66.2522C135.354 66.2172 135.423 66.1944 135.494 66.1853C135.566 66.1761 135.639 66.1807 135.708 66.1988C135.778 66.2169 135.843 66.2481 135.901 66.2908L135.889 66.3063L135.901 66.291C136.017 66.3771 136.092 66.5043 136.111 66.6444C136.13 66.7846 136.091 66.9264 136.003 67.0387L133.775 69.8572C133.724 69.9222 133.657 69.9747 133.582 70.0108C133.506 70.0469 133.422 70.0656 133.338 70.0654Z" fill="#F25959"/>
<path d="M149.384 90.3804L228.267 32.4036C229.199 31.7134 230.505 31.933 231.189 32.8742L233.1 35.5252C233.784 36.4664 233.566 37.784 232.634 38.4742L153.767 96.451H153.751L143.293 101L142.5 99.902L149.384 90.3804Z" fill="#393939"/>
</svg>
