<svg width="36" height="42" viewBox="0 0 36 42" fill="none" xmlns="http://www.w3.org/2000/svg">
<path d="M20.9255 41.1114C15.4145 41.0457 9.91058 40.6964 4.43539 40.065C3.31095 39.9411 2.27384 39.3991 1.52911 38.5461C0.784379 37.6932 0.386249 36.5914 0.413413 35.4586L0.801719 18.6385L0.846945 18.573C5.47163 11.863 3.21887 6.96192 1.48528 4.32331C1.11956 3.76602 0.925004 3.11357 0.925678 2.44667C0.659708 2.07368 0.600137 2.66245 0.766102 2.24471C0.847833 2.03741 0.979981 1.85388 1.15054 1.71076C1.32111 1.56764 1.52468 1.46949 1.74274 1.42522L4.38328 0.896646C4.70013 0.833256 5.02917 0.887573 5.30895 1.04947C5.58873 1.21136 5.80008 1.46975 5.90355 1.77636C6.79083 4.42829 10.249 12.9611 18.1733 12.959C24.7933 12.959 27.2636 3.5752 27.4115 1.40656C27.4354 1.0706 27.5855 0.756207 27.8316 0.526646C28.0776 0.297085 28.4013 0.169417 28.7376 0.169329H32.0356C32.2443 0.164426 32.4515 0.206602 32.6417 0.292749C32.832 0.378896 33.0004 0.506786 33.1346 0.666977C33.2989 0.870887 33.3989 1.11911 33.4221 1.38012C33.4452 1.64112 33.3903 1.90314 33.2644 2.13283C29.5004 9.06504 35.0012 20.0362 35.057 20.1427L35.0921 20.212L33.5399 36.3532C33.4461 37.3001 33.0582 38.1938 32.4309 38.9084C31.8036 39.6231 30.9685 40.1227 30.043 40.3372C27.6434 40.9015 24.4001 41.1114 20.9255 41.1114Z" fill="#D51010"/>
</svg>
