<svg width="18" height="15" viewBox="0 0 18 15" fill="none" xmlns="http://www.w3.org/2000/svg">
<path d="M4.25391 0C3.22031 0 2.32031 0.669643 2.0707 1.62388L0.0667969 9.25446C0.0210937 9.42522 0 9.59933 0 9.77344V12.8571C0 14.0391 1.00898 15 2.25 15H15.75C16.991 15 18 14.0391 18 12.8571V9.77344C18 9.59933 17.9789 9.42522 17.9332 9.25446L15.9293 1.62388C15.6797 0.669643 14.7797 0 13.7461 0H4.25391ZM4.25391 2.14286H13.7461L15.4336 8.57143H13.6336C13.2082 8.57143 12.818 8.79911 12.6281 9.16406L12.1254 10.1217C11.9355 10.4833 11.5453 10.7143 11.1199 10.7143H6.88359C6.4582 10.7143 6.06797 10.4866 5.87812 10.1217L5.37539 9.16406C5.18555 8.80246 4.79531 8.57143 4.36992 8.57143H2.56641L4.25391 2.14286Z" fill="#6C6C6C"/>
</svg>
