<svg width="18" height="18" viewBox="0 0 18 18" fill="none" xmlns="http://www.w3.org/2000/svg">
<path d="M2.57143 0C1.15313 0 0 1.15313 0 2.57143V15.4286C0 16.8469 1.15313 18 2.57143 18H15.4286C16.8469 18 18 16.8469 18 15.4286V2.57143C18 1.15313 16.8469 0 15.4286 0H2.57143ZM8.03572 12.5357V9.96429H5.46429C4.92991 9.96429 4.5 9.53438 4.5 9C4.5 8.46562 4.92991 8.03572 5.46429 8.03572H8.03572V5.46429C8.03572 4.92991 8.46562 4.5 9 4.5C9.53438 4.5 9.96429 4.92991 9.96429 5.46429V8.03572H12.5357C13.0701 8.03572 13.5 8.46562 13.5 9C13.5 9.53438 13.0701 9.96429 12.5357 9.96429H9.96429V12.5357C9.96429 13.0701 9.53438 13.5 9 13.5C8.46562 13.5 8.03572 13.0701 8.03572 12.5357Z" fill="#6C6C6C"/>
</svg>
